# xmcd
#
# Track frame offsets:
#	183
#	10055
#	18653
#	31785
#	42223
#	55188
#	66508
#	79533
#	91368
#	102428
#	118313
#	128455
#	138453
#	145698
#
# Disc length: 2052 seconds
# Revision: 0
# Processed by: cddbd v1.5.2PL0 Copyright (c) Steve Scherf et al.
# Submitted via: dBpowerAMP V12.0
#
DISCID=b708020e
DTITLE=Bass Mountain Boys - Carolina Calling Me
DYEAR=1992
DGENRE=Country
TTITLE0=Handsome Molly
TTITLE1=Georgie Buck
TTITLE2=The Dying Soldier
TTITLE3=On the Run
TTITLE4=Slippin' Away
TTITLE5=Just a Memory Away
TTITLE6=Water's So Cold
TTITLE7=Carolina Calling Me
TTITLE8=My Little Home in Tennessee
TTITLE9=One Way Mind
TTITLE10=Black Mountain Rag
TTITLE11=You Can't Judge a Book by it's Cover
TTITLE12=Gospel Medley, Pt. 1 - Power in the Blood - Prayer Bells - Walking in Jerusalem
TTITLE13=Gospel Medley, Pt. 2 - Paul and Silas - Just a Little Talk With Jesus - Uncloudy Day
EXTD=
EXTT0=
EXTT1=
EXTT2=
EXTT3=
EXTT4=
EXTT5=
EXTT6=
EXTT7=
EXTT8=
EXTT9=
EXTT10=
EXTT11=
EXTT12=
EXTT13=
PLAYORDER=
